<svg width="15" height="17" viewBox="0 0 15 17" fill="none" xmlns="http://www.w3.org/2000/svg">
<path d="M13.3203 1.64062C13.7891 1.64062 14.1797 1.8099 14.4922 2.14844C14.8307 2.46094 15 2.85156 15 3.32031V15C15 15.4427 14.8307 15.8333 14.4922 16.1719C14.1797 16.4844 13.7891 16.6406 13.3203 16.6406H1.67969C1.21094 16.6406 0.807292 16.4844 0.46875 16.1719C0.15625 15.8333 0 15.4427 0 15V3.32031C0 2.85156 0.15625 2.46094 0.46875 2.14844C0.807292 1.8099 1.21094 1.64062 1.67969 1.64062H2.5V0H4.17969V1.64062H10.8203V0H12.5V1.64062H13.3203ZM13.3203 15V6.64062H1.67969V15H13.3203ZM5 10V8.32031H3.32031V10H5ZM8.32031 10V8.32031H6.67969V10H8.32031ZM11.6797 10V8.32031H10V10H11.6797ZM5 13.3203V11.6406H3.32031V13.3203H5ZM8.32031 13.3203V11.6406H6.67969V13.3203H8.32031ZM11.6797 13.3203V11.6406H10V13.3203H11.6797Z" fill="#137FEC"/>
</svg>
