<svg width="17" height="23" viewBox="0 0 17 23" fill="none" xmlns="http://www.w3.org/2000/svg">
<path d="M13.0312 18V16.0312H15V20.0156C15 20.5469 14.7969 21.0156 14.3906 21.4219C14.0156 21.8281 13.5625 22.0312 13.0312 22.0312H3C2.46875 22.0312 2 21.8281 1.59375 21.4219C1.21875 21.0156 1.03125 20.5469 1.03125 20.0156V16.0312H3V18H13.0312ZM6 14.2031L4.59375 15.6094L0 11.0156L4.59375 6.42188L6 7.82812L2.85938 11.0156L6 14.2031ZM11.4375 15.6094L10.0312 14.2031L13.1719 11.0156L10.0312 7.82812L11.4375 6.42188L16.0312 11.0156L11.4375 15.6094ZM3 4.03125V6H1.03125V2.01562C1.03125 1.48438 1.21875 1.01563 1.59375 0.609375C2 0.203125 2.46875 0 3 0L13.0312 0.046875C13.5625 0.046875 14.0156 0.25 14.3906 0.65625C14.7969 1.03125 15 1.48438 15 2.01562V6H13.0312V4.03125H3Z" fill="#CBD5E1"/>
</svg>
