<svg width="40" height="40" viewBox="0 0 40 40" fill="none" xmlns="http://www.w3.org/2000/svg">
<path d="M0 20C0 8.95431 8.95431 0 20 0C31.0457 0 40 8.95431 40 20C40 31.0457 31.0457 40 20 40C8.95431 40 0 31.0457 0 20Z" fill="#E7F2FD"/>
<path d="M20.8906 19.1094C20.0156 18.7969 19.3594 18.5156 18.9219 18.2656C18.4844 18.0156 18.2656 17.6562 18.2656 17.1875C18.2656 16.8438 18.3594 16.5781 18.5469 16.3906C18.7656 16.1719 19.0156 16.0312 19.2969 15.9688C19.5781 15.875 19.8281 15.8281 20.0469 15.8281C20.4844 15.8281 20.8281 15.9219 21.0781 16.1094C21.3594 16.2656 21.5625 16.4531 21.6875 16.6719C21.8438 16.8594 21.9375 17.0156 21.9688 17.1406L23.5625 16.4844C23.5 16.3281 23.375 16.0938 23.1875 15.7812C23 15.4688 22.7344 15.1719 22.3906 14.8906C22.0469 14.5781 21.5781 14.3594 20.9844 14.2344V13.0156H19.0156V14.2812C18.3906 14.4062 17.9062 14.625 17.5625 14.9375C17.2188 15.25 16.9688 15.5781 16.8125 15.9219C16.6875 16.2656 16.6094 16.5625 16.5781 16.8125C16.5469 17.0625 16.5312 17.2031 16.5312 17.2344C16.5312 17.7969 16.6406 18.2656 16.8594 18.6406C17.1094 19.0156 17.4062 19.3281 17.75 19.5781C18.125 19.8281 18.5 20.0312 18.875 20.1875C19.25 20.3125 19.5781 20.4219 19.8594 20.5156C20.6406 20.7969 21.2188 21.0938 21.5938 21.4062C21.9688 21.6875 22.1562 22.0781 22.1562 22.5781C22.1562 23.1406 21.9375 23.5469 21.5 23.7969C21.0625 24.0469 20.6094 24.1719 20.1406 24.1719C19.7031 24.1719 19.3281 24.0781 19.0156 23.8906C18.7031 23.7031 18.4531 23.4844 18.2656 23.2344C18.1094 22.9531 17.9844 22.7031 17.8906 22.4844C17.8281 22.2656 17.7812 22.125 17.75 22.0625L16.1094 22.7656C16.3281 23.4844 16.625 24.0469 17 24.4531C17.375 24.8594 17.75 25.1562 18.125 25.3438C18.5 25.5312 18.7969 25.6562 19.0156 25.7188V26.9844H20.9844V25.7656C21.1094 25.7344 21.3125 25.6719 21.5938 25.5781C21.9062 25.4844 22.2344 25.3281 22.5781 25.1094C22.9531 24.8906 23.2656 24.5781 23.5156 24.1719C23.7656 23.7344 23.8906 23.1875 23.8906 22.5312C23.8906 21.8438 23.6875 21.2031 23.2812 20.6094C22.875 20.0156 22.0781 19.5156 20.8906 19.1094ZM11 29H8.98438V23H14.9844V25.0156H12.5C13.3125 26.2031 14.375 27.1719 15.6875 27.9219C17 28.6406 18.4375 29 20 29C21.25 29 22.4062 28.7656 23.4688 28.2969C24.5625 27.8281 25.5156 27.1875 26.3281 26.375C27.1719 25.5312 27.8281 24.5781 28.2969 23.5156C28.7656 22.4219 29 21.25 29 20H31.0156C31.0156 21.5312 30.7188 22.9688 30.125 24.3125C29.5625 25.625 28.7812 26.7812 27.7812 27.7812C26.7812 28.7812 25.6094 29.5781 24.2656 30.1719C22.9531 30.7344 21.5312 31.0156 20 31.0156C18.125 31.0156 16.4062 30.5938 14.8438 29.75C13.2812 28.875 12 27.7344 11 26.3281V29ZM8.98438 20C8.98438 18.4688 9.26562 17.0469 9.82812 15.7344C10.4219 14.3906 11.2188 13.2188 12.2188 12.2188C13.2188 11.2188 14.375 10.4375 15.6875 9.875C17.0312 9.28125 18.4688 8.98438 20 8.98438C21.875 8.98438 23.5938 9.42188 25.1562 10.2969C26.7188 11.1406 28 12.2656 29 13.6719V11H31.0156V17H25.0156V14.9844H27.5C26.6875 13.7969 25.625 12.8438 24.3125 12.125C23 11.375 21.5625 11 20 11C18.75 11 17.5781 11.2344 16.4844 11.7031C15.4219 12.1719 14.4688 12.8281 13.625 13.6719C12.8125 14.4844 12.1719 15.4375 11.7031 16.5312C11.2344 17.5938 11 18.75 11 20H8.98438Z" fill="#137FEC"/>
</svg>
